<?xml version="1.0" encoding="UTF-8"?>
<svg version="1.1" xmlns="http://www.w3.org/2000/svg" width="1440" height="430">
<path d="M0 0 C0 6.27 0 12.54 0 19 C-3.155625 19.433125 -3.155625 19.433125 -6.375 19.875 C-10.59301464 20.47455764 -14.77078203 21.11166419 -18.9375 22 C-24.38741848 23.14924146 -29.88833815 23.79391337 -35.41015625 24.5 C-38.29334615 24.90157596 -41.09493087 25.3864269 -43.9375 26 C-48.95736464 27.07269228 -54.02267839 27.64802848 -59.11474609 28.25 C-63.59970557 28.79196348 -67.96702599 29.54768858 -72.37890625 30.5 C-77.02327144 31.38595938 -81.72175592 31.90048427 -86.41015625 32.5 C-89.29334615 32.90157596 -92.09493087 33.3864269 -94.9375 34 C-100.53389009 35.1958897 -106.19438274 35.79613999 -111.875 36.4375 C-114.81145773 36.80260384 -117.68133697 37.31912347 -120.578125 37.921875 C-126.57957503 39.15867573 -132.62382551 40.04927431 -138.68426514 40.9446106 C-142.31903321 41.48195916 -145.95250096 42.02794952 -149.5859375 42.57421875 C-150.348992 42.68885971 -151.11204651 42.80350067 -151.89822388 42.9216156 C-160.73145847 44.25353276 -169.55289558 45.65911207 -178.375 47.0625 C-190.56656736 49.00019097 -202.76363281 50.8790811 -214.9777832 52.66992188 C-226.65687397 54.38342153 -238.3161845 56.20262992 -249.95458984 58.17382812 C-250.7120752 58.30208984 -251.46956055 58.43035156 -252.25 58.5625 C-253.3630249 58.75102539 -253.3630249 58.75102539 -254.49853516 58.94335938 C-260.52399431 59.95048896 -266.56153748 60.757631 -272.62109375 61.53515625 C-276.48295123 62.06644069 -280.29300554 62.76975366 -284.12109375 63.5 C-287.59093274 64.10263147 -291.06935689 64.55243011 -294.5625 65 C-298.74680322 65.53936638 -302.87365505 66.12117778 -307 67 C-312.40559295 68.15127437 -317.86074631 68.7979735 -323.33984375 69.5 C-326.41783622 69.92047282 -329.44958514 70.41810268 -332.5 71 C-336.83931509 71.82776801 -341.1806906 72.43856696 -345.5625 73 C-349.72784251 73.53638213 -353.83212788 74.11534069 -357.9375 75 C-362.95736464 76.07269228 -368.02267839 76.64802848 -373.11474609 77.25 C-377.59970557 77.79196348 -381.96702599 78.54768858 -386.37890625 79.5 C-391.02327144 80.38595938 -395.72175592 80.90048427 -400.41015625 81.5 C-403.29334615 81.90157596 -406.09493087 82.3864269 -408.9375 83 C-413.95736464 84.07269228 -419.02267839 84.64802848 -424.11474609 85.25 C-428.59970557 85.79196348 -432.96702599 86.54768858 -437.37890625 87.5 C-442.02327144 88.38595938 -446.72175592 88.90048427 -451.41015625 89.5 C-454.29334615 89.90157596 -457.09493087 90.3864269 -459.9375 91 C-464.95736464 92.07269228 -470.02267839 92.64802848 -475.11474609 93.25 C-479.59970557 93.79196348 -483.96702599 94.54768858 -488.37890625 95.5 C-493.02327144 96.38595938 -497.72175592 96.90048427 -502.41015625 97.5 C-505.29334615 97.90157596 -508.09493087 98.3864269 -510.9375 99 C-515.95736464 100.07269228 -521.02267839 100.64802848 -526.11474609 101.25 C-530.59970557 101.79196348 -534.96702599 102.54768858 -539.37890625 103.5 C-544.02327144 104.38595938 -548.72175592 104.90048427 -553.41015625 105.5 C-556.29334615 105.90157596 -559.09493087 106.3864269 -561.9375 107 C-567.53389009 108.1958897 -573.19438274 108.79613999 -578.875 109.4375 C-581.79589406 109.80084793 -584.6500204 110.31350695 -587.53125 110.9140625 C-593.77342378 112.20103507 -600.06811623 113.12346562 -606.37036133 114.05886841 C-608.5512871 114.38261325 -610.73174861 114.70933796 -612.91210938 115.03686523 C-615.87488707 115.48187775 -618.83778759 115.92605675 -621.80078125 116.36962891 C-627.70250399 117.25431688 -633.60166014 118.15555243 -639.5 119.0625 C-640.53874268 119.22202148 -641.57748535 119.38154297 -642.64770508 119.54589844 C-651.22189039 120.86820183 -659.78586833 122.25141513 -668.35009766 123.63647461 C-675.17777482 124.73207862 -682.00760559 125.69560071 -688.8671875 126.5703125 C-692.64603649 127.0886085 -696.37537547 127.78546656 -700.12109375 128.5 C-703.59093274 129.10263147 -707.06935689 129.55243011 -710.5625 130 C-714.74680322 130.53936638 -718.87365505 131.12117778 -723 132 C-728.40559295 133.15127437 -733.86074631 133.7979735 -739.33984375 134.5 C-742.41783622 134.92047282 -745.44958514 135.41810268 -748.5 136 C-752.83931509 136.82776801 -757.1806906 137.43856696 -761.5625 138 C-765.72784251 138.53638213 -769.83212788 139.11534069 -773.9375 140 C-778.95736464 141.07269228 -784.02267839 141.64802848 -789.11474609 142.25 C-793.59970557 142.79196348 -797.96702599 143.54768858 -802.37890625 144.5 C-807.02327144 145.38595938 -811.72175592 145.90048427 -816.41015625 146.5 C-819.29334615 146.90157596 -822.09493087 147.3864269 -824.9375 148 C-829.95736464 149.07269228 -835.02267839 149.64802848 -840.11474609 150.25 C-844.59970557 150.79196348 -848.96702599 151.54768858 -853.37890625 152.5 C-858.02327144 153.38595938 -862.72175592 153.90048427 -867.41015625 154.5 C-870.29334615 154.90157596 -873.09493087 155.3864269 -875.9375 156 C-880.95736464 157.07269228 -886.02267839 157.64802848 -891.11474609 158.25 C-895.59970557 158.79196348 -899.96702599 159.54768858 -904.37890625 160.5 C-909.02327144 161.38595938 -913.72175592 161.90048427 -918.41015625 162.5 C-921.29334615 162.90157596 -924.09493087 163.3864269 -926.9375 164 C-931.95805503 165.07283981 -937.02408897 165.64856039 -942.11694336 166.25 C-946.57999383 166.78887085 -950.91948936 167.54939871 -955.30859375 168.5 C-958.87413327 169.16239341 -962.4625481 169.57725335 -966.0625 170 C-970.25391495 170.49310764 -974.3953413 170.99156178 -978.5 172 C-983.29601642 173.17829194 -988.17079087 173.67510205 -993.06640625 174.25 C-996.75196743 174.6917152 -1000.37231751 175.21430904 -1004 176 C-1008.32483572 176.93668185 -1012.671437 177.48435223 -1017.0625 178 C-1021.25391495 178.49310764 -1025.3953413 178.99156178 -1029.5 180 C-1034.29601642 181.17829194 -1039.17079087 181.67510205 -1044.06640625 182.25 C-1047.75196743 182.6917152 -1051.37231751 183.21430904 -1055 184 C-1059.16258906 184.89645073 -1063.33694708 185.44234175 -1067.5625 185.9375 C-1073.03457058 186.58481685 -1078.45362727 187.38128978 -1083.875 188.375 C-1092.17198833 189.89256382 -1100.4980567 191.17771114 -1108.83666992 192.44433594 C-1116.62735496 193.62944558 -1124.4087044 194.86438831 -1132.1875 196.125 C-1140.06921469 197.40003701 -1147.94697807 198.56035291 -1155.8671875 199.5703125 C-1159.64603649 200.0886085 -1163.37537547 200.78546656 -1167.12109375 201.5 C-1170.59093274 202.10263147 -1174.06935689 202.55243011 -1177.5625 203 C-1181.72784251 203.53638213 -1185.83212788 204.11534069 -1189.9375 205 C-1194.95736464 206.07269228 -1200.02267839 206.64802848 -1205.11474609 207.25 C-1209.59970557 207.79196348 -1213.96702599 208.54768858 -1218.37890625 209.5 C-1223.02327144 210.38595938 -1227.72175592 210.90048427 -1232.41015625 211.5 C-1235.29334615 211.90157596 -1238.09493087 212.3864269 -1240.9375 213 C-1245.95736464 214.07269228 -1251.02267839 214.64802848 -1256.11474609 215.25 C-1260.59970557 215.79196348 -1264.96702599 216.54768858 -1269.37890625 217.5 C-1274.02327144 218.38595938 -1278.72175592 218.90048427 -1283.41015625 219.5 C-1286.29334615 219.90157596 -1289.09493087 220.3864269 -1291.9375 221 C-1296.95805503 222.07283981 -1302.02408897 222.64856039 -1307.11694336 223.25 C-1311.57999383 223.78887085 -1315.91948936 224.54939871 -1320.30859375 225.5 C-1323.87413327 226.16239341 -1327.4625481 226.57725335 -1331.0625 227 C-1335.25391495 227.49310764 -1339.3953413 227.99156178 -1343.5 229 C-1348.29601642 230.17829194 -1353.17079087 230.67510205 -1358.06640625 231.25 C-1361.75196743 231.6917152 -1365.37231751 232.21430904 -1369 233 C-1373.30459768 233.93072382 -1377.62998865 234.48392439 -1382 235 C-1387.18802851 235.61324497 -1392.27226235 236.39772273 -1397.37890625 237.5 C-1402.02191687 238.38570098 -1406.71872212 238.90077771 -1411.40625 239.49609375 C-1414.32094452 239.90478461 -1417.13228533 240.4172642 -1420 241.0625 C-1426.5823634 242.47938161 -1433.29505744 242.63427586 -1440 243 C-1440 236.73 -1440 230.46 -1440 224 C-1438.52789063 223.80664062 -1437.05578125 223.61328125 -1435.5390625 223.4140625 C-1433.56768558 223.15121224 -1431.59633269 222.88818177 -1429.625 222.625 C-1428.65949219 222.49867188 -1427.69398437 222.37234375 -1426.69921875 222.2421875 C-1421.18665961 221.50224668 -1415.76277122 220.58210547 -1410.31787109 219.45068359 C-1406.89067087 218.7843036 -1403.46988233 218.39176091 -1400 218 C-1394.81155107 217.39066101 -1389.72746427 216.60221826 -1384.62109375 215.5 C-1381.26203386 214.85922554 -1377.89183047 214.43372058 -1374.5 214 C-1370.40148656 213.47392216 -1366.35314189 212.92784101 -1362.3125 212.0625 C-1355.83078646 210.69402038 -1349.27379637 209.81221215 -1342.72265625 208.84765625 C-1336.62291506 207.94929409 -1330.530347 207.00630742 -1324.4375 206.0625 C-1315.31746824 204.65281313 -1306.19240134 203.2817246 -1297.0625 201.9375 C-1284.03709596 200.01708787 -1271.02692327 198.02485242 -1258.04541016 195.82617188 C-1257.2879248 195.69791016 -1256.53043945 195.56964844 -1255.75 195.4375 C-1255.0079834 195.31181641 -1254.2659668 195.18613281 -1253.50146484 195.05664062 C-1247.47600569 194.04951104 -1241.43846252 193.242369 -1235.37890625 192.46484375 C-1231.51704877 191.93355931 -1227.70699446 191.23024634 -1223.87890625 190.5 C-1220.40906726 189.89736853 -1216.93064311 189.44756989 -1213.4375 189 C-1209.25319678 188.46063362 -1205.12634495 187.87882222 -1201 187 C-1195.59440705 185.84872563 -1190.13925369 185.2020265 -1184.66015625 184.5 C-1181.58216378 184.07952718 -1178.55041486 183.58189732 -1175.5 183 C-1171.16068491 182.17223199 -1166.8193094 181.56143304 -1162.4375 181 C-1158.27215749 180.46361787 -1154.16787212 179.88465931 -1150.0625 179 C-1145.04263536 177.92730772 -1139.97732161 177.35197152 -1134.88525391 176.75 C-1130.40029443 176.20803652 -1126.03297401 175.45231142 -1121.62109375 174.5 C-1116.97672856 173.61404062 -1112.27824408 173.09951573 -1107.58984375 172.5 C-1104.70665385 172.09842404 -1101.90506913 171.6135731 -1099.0625 171 C-1094.04263536 169.92730772 -1088.97732161 169.35197152 -1083.88525391 168.75 C-1079.40029443 168.20803652 -1075.03297401 167.45231142 -1070.62109375 166.5 C-1065.97672856 165.61404062 -1061.27824408 165.09951573 -1056.58984375 164.5 C-1053.70665385 164.09842404 -1050.90506913 163.6135731 -1048.0625 163 C-1043.04263536 161.92730772 -1037.97732161 161.35197152 -1032.88525391 160.75 C-1028.40029443 160.20803652 -1024.03297401 159.45231142 -1019.62109375 158.5 C-1014.97672856 157.61404062 -1010.27824408 157.09951573 -1005.58984375 156.5 C-1002.70665385 156.09842404 -999.90506913 155.6135731 -997.0625 155 C-992.04263536 153.92730772 -986.97732161 153.35197152 -981.88525391 152.75 C-977.40029443 152.20803652 -973.03297401 151.45231142 -968.62109375 150.5 C-963.97672856 149.61404062 -959.27824408 149.09951573 -954.58984375 148.5 C-951.70665385 148.09842404 -948.90506913 147.6135731 -946.0625 147 C-940.46610991 145.8041103 -934.80561726 145.20386001 -929.125 144.5625 C-926.20410594 144.19915207 -923.3499796 143.68649305 -920.46875 143.0859375 C-914.22657622 141.79896493 -907.93188377 140.87653438 -901.62963867 139.94113159 C-899.4487129 139.61738675 -897.26825139 139.29066204 -895.08789062 138.96313477 C-892.12511293 138.51812225 -889.16221241 138.07394325 -886.19921875 137.63037109 C-880.29749601 136.74568312 -874.39833986 135.84444757 -868.5 134.9375 C-867.46125732 134.77797852 -866.42251465 134.61845703 -865.35229492 134.45410156 C-856.77810961 133.13179817 -848.21413167 131.74858487 -839.64990234 130.36352539 C-832.82222518 129.26792138 -825.99239441 128.30439929 -819.1328125 127.4296875 C-815.35396351 126.9113915 -811.62462453 126.21453344 -807.87890625 125.5 C-804.40906726 124.89736853 -800.93064311 124.44756989 -797.4375 124 C-793.25319678 123.46063362 -789.12634495 122.87882222 -785 122 C-779.59440705 120.84872563 -774.13925369 120.2020265 -768.66015625 119.5 C-765.58216378 119.07952718 -762.55041486 118.58189732 -759.5 118 C-755.16068491 117.17223199 -750.8193094 116.56143304 -746.4375 116 C-742.27215749 115.46361787 -738.16787212 114.88465931 -734.0625 114 C-729.04263536 112.92730772 -723.97732161 112.35197152 -718.88525391 111.75 C-714.40029443 111.20803652 -710.03297401 110.45231142 -705.62109375 109.5 C-700.97672856 108.61404062 -696.27824408 108.09951573 -691.58984375 107.5 C-688.70665385 107.09842404 -685.90506913 106.6135731 -683.0625 106 C-678.04263536 104.92730772 -672.97732161 104.35197152 -667.88525391 103.75 C-663.40029443 103.20803652 -659.03297401 102.45231142 -654.62109375 101.5 C-649.97672856 100.61404062 -645.27824408 100.09951573 -640.58984375 99.5 C-637.70665385 99.09842404 -634.90506913 98.6135731 -632.0625 98 C-627.04263536 96.92730772 -621.97732161 96.35197152 -616.88525391 95.75 C-612.40029443 95.20803652 -608.03297401 94.45231142 -603.62109375 93.5 C-598.97672856 92.61404062 -594.27824408 92.09951573 -589.58984375 91.5 C-586.70665385 91.09842404 -583.90506913 90.6135731 -581.0625 90 C-576.04194497 88.92716019 -570.97591103 88.35143961 -565.88305664 87.75 C-561.42000617 87.21112915 -557.08051064 86.45060129 -552.69140625 85.5 C-549.12586673 84.83760659 -545.5374519 84.42274665 -541.9375 84 C-537.74608505 83.50689236 -533.6046587 83.00843822 -529.5 82 C-524.70398358 80.82170806 -519.82920913 80.32489795 -514.93359375 79.75 C-511.24803257 79.3082848 -507.62768249 78.78569096 -504 78 C-499.67516428 77.06331815 -495.328563 76.51564777 -490.9375 76 C-486.74608505 75.50689236 -482.6046587 75.00843822 -478.5 74 C-473.70398358 72.82170806 -468.82920913 72.32489795 -463.93359375 71.75 C-460.24803257 71.3082848 -456.62768249 70.78569096 -453 70 C-448.83741094 69.10354927 -444.66305292 68.55765825 -440.4375 68.0625 C-434.96542942 67.41518315 -429.54637273 66.61871022 -424.125 65.625 C-415.82801167 64.10743618 -407.5019433 62.82228886 -399.16333008 61.55566406 C-391.37264504 60.37055442 -383.5912956 59.13561169 -375.8125 57.875 C-367.93078531 56.59996299 -360.05302193 55.43964709 -352.1328125 54.4296875 C-348.35396351 53.9113915 -344.62462453 53.21453344 -340.87890625 52.5 C-337.40906726 51.89736853 -333.93064311 51.44756989 -330.4375 51 C-326.27215749 50.46361787 -322.16787212 49.88465931 -318.0625 49 C-313.04263536 47.92730772 -307.97732161 47.35197152 -302.88525391 46.75 C-298.40029443 46.20803652 -294.03297401 45.45231142 -289.62109375 44.5 C-284.97672856 43.61404062 -280.27824408 43.09951573 -275.58984375 42.5 C-272.70665385 42.09842404 -269.90506913 41.6135731 -267.0625 41 C-262.04263536 39.92730772 -256.97732161 39.35197152 -251.88525391 38.75 C-247.40029443 38.20803652 -243.03297401 37.45231142 -238.62109375 36.5 C-233.97672856 35.61404062 -229.27824408 35.09951573 -224.58984375 34.5 C-221.70665385 34.09842404 -218.90506913 33.6135731 -216.0625 33 C-211.04194497 31.92716019 -205.97591103 31.35143961 -200.88305664 30.75 C-196.42000617 30.21112915 -192.08051064 29.45060129 -187.69140625 28.5 C-184.12586673 27.83760659 -180.5374519 27.42274665 -176.9375 27 C-172.74608505 26.50689236 -168.6046587 26.00843822 -164.5 25 C-159.70398358 23.82170806 -154.82920913 23.32489795 -149.93359375 22.75 C-146.24803257 22.3082848 -142.62768249 21.78569096 -139 21 C-134.67516428 20.06331815 -130.328563 19.51564777 -125.9375 19 C-121.74608505 18.50689236 -117.6046587 18.00843822 -113.5 17 C-108.70398358 15.82170806 -103.82920913 15.32489795 -98.93359375 14.75 C-95.24803257 14.3082848 -91.62768249 13.78569096 -88 13 C-83.69540232 12.06927618 -79.37001135 11.51607561 -75 11 C-69.81197149 10.38675503 -64.72773765 9.60227727 -59.62109375 8.5 C-54.97672856 7.61404062 -50.27824408 7.09951573 -45.58984375 6.5 C-42.70665385 6.09842404 -39.90506913 5.6135731 -37.0625 5 C-32.04937299 3.92874748 -26.99095936 3.35064737 -21.9050293 2.75439453 C-17.27158281 2.19800635 -12.75276016 1.43295816 -8.2109375 0.3671875 C-6 0 -6 0 0 0 Z " fill="#C3A270" transform="translate(1440,88)"/>
</svg>
