<?xml version="1.0" encoding="UTF-8"?>
<svg version="1.1" xmlns="http://www.w3.org/2000/svg" width="1440" height="1294">
<path d="M0 0 C0 3.3 0 6.6 0 10 C-5.69114858 12.92687641 -11.33494328 15.60615808 -17.30126953 17.91455078 C-19.9448258 18.97780853 -22.52596354 20.12728366 -25.11328125 21.3203125 C-30.79231719 23.91791125 -36.51502622 26.40397137 -42.25 28.875 C-48.83669376 31.72240034 -55.39526257 34.60402648 -61.875 37.6875 C-67.73535426 40.46174753 -73.67206266 42.94977975 -79.67871094 45.38232422 C-84.8337749 47.48378873 -89.87744481 49.76710553 -94.90527344 52.15966797 C-101.7376529 55.39013698 -108.67756867 58.37031117 -115.61767578 61.3605957 C-120.2651199 63.36547866 -124.89631872 65.39632565 -129.5 67.5 C-135.05041415 70.0362885 -140.64584503 72.46033728 -146.25 74.875 C-152.83669376 77.72240034 -159.39526257 80.60402648 -165.875 83.6875 C-171.73535426 86.46174753 -177.67206266 88.94977975 -183.67871094 91.38232422 C-188.8337749 93.48378873 -193.87744481 95.76710553 -198.90527344 98.15966797 C-205.7376529 101.39013698 -212.67756867 104.37031117 -219.61767578 107.3605957 C-224.20744991 109.34060013 -228.78048897 111.3459494 -233.32421875 113.4296875 C-241.04836257 116.95966385 -248.88275513 120.23397375 -256.70507812 123.5390625 C-262.82732503 126.14427395 -268.82971699 128.86055083 -274.75415039 131.88769531 C-278.15829796 133.57367165 -281.65759565 134.97716128 -285.1875 136.375 C-293.26673011 139.63731566 -301.12967601 143.26768141 -309 147 C-320.73692661 152.43707835 -332.57911386 157.63128005 -344.5625 162.5 C-350.594347 164.95495693 -356.51443421 167.57963249 -362.39770508 170.37060547 C-367.65719618 172.86117229 -372.9741185 175.20309832 -378.31201172 177.52001953 C-381.95486143 179.10228531 -385.58084874 180.7112683 -389.1875 182.375 C-394.49873955 184.81031949 -399.87394402 187.08768069 -405.25 189.375 C-411.48456751 192.03020002 -417.68623104 194.72804366 -423.8125 197.625 C-435.018287 202.91830783 -446.41825152 207.75453704 -457.8125 212.625 C-465.91624302 216.08968557 -473.97094746 219.63221001 -481.9453125 223.38671875 C-488.02988473 226.23465735 -494.15098938 228.91366475 -500.375 231.4375 C-506.47117993 233.91141092 -512.45356988 236.55052756 -518.39697266 239.37036133 C-523.65176577 241.85841041 -528.96369862 244.19844021 -534.29663086 246.51342773 C-538.08979717 248.16111485 -541.86614452 249.83739477 -545.625 251.5625 C-550.91015156 253.98287722 -556.25434185 256.25591795 -561.6015625 258.53515625 C-565.43464969 260.187349 -569.22973918 261.9121665 -573.0234375 263.65234375 C-576.66770325 265.30230659 -580.33257147 266.90234223 -584 268.5 C-588.47240579 270.44940364 -592.93733676 272.40982926 -597.375 274.4375 C-608.90885737 279.70370733 -620.45829171 284.90934159 -632.25439453 289.56591797 C-635.51618501 290.87563122 -638.5807282 292.27569177 -641.61328125 294.05859375 C-644.71979234 295.83937347 -647.63845001 297.10881999 -651 298.3125 C-655.86076965 300.12696538 -660.57113869 302.13841164 -665.25 304.375 C-670.61957112 306.94081066 -676.04060679 309.28153225 -681.5625 311.5 C-688.14608039 314.15218498 -694.4258369 317.14718613 -700.74609375 320.3828125 C-704.71008792 322.35291284 -708.74809896 324.04242783 -712.84765625 325.70703125 C-716.35979923 327.14757565 -719.83805994 328.6590081 -723.3125 330.1875 C-728.07220314 332.28085821 -732.83581105 334.36417613 -737.609375 336.42578125 C-750.30999516 341.90606291 -750.30999516 341.90606291 -762.875 347.6875 C-768.72671036 350.45765557 -774.65423984 352.94311275 -780.65234375 355.37133789 C-787.89346016 358.32255615 -794.93682815 361.65045458 -802 365 C-813.73694849 370.43708848 -825.57920328 375.63101746 -837.5625 380.5 C-845.50715955 383.73527109 -853.2553908 387.31575434 -861 391 C-868.76527178 394.67581267 -876.59095549 398.08984312 -884.54882812 401.31982422 C-891.82205571 404.29359887 -898.9022153 407.63404024 -906 411 C-917.73694849 416.43708848 -929.57920328 421.63101746 -941.5625 426.5 C-949.50715955 429.73527109 -957.2553908 433.31575434 -965 437 C-972.76885284 440.67750782 -980.59818937 444.09295019 -988.55981445 447.32421875 C-993.91915657 449.51528454 -999.16680156 451.88891869 -1004.39697266 454.37036133 C-1009.65383798 456.85939157 -1014.96754229 459.20117054 -1020.30322266 461.515625 C-1024.03507309 463.13570967 -1027.74530348 464.7907532 -1031.4375 466.5 C-1035.99172613 468.58934512 -1040.60880341 470.4901766 -1045.25 472.375 C-1052.1521354 475.18050824 -1058.9076835 478.21657966 -1065.6328125 481.421875 C-1075.4009901 486 -1075.4009901 486 -1079 486 C-1079 486.66 -1079 487.32 -1079 488 C-1080.21623047 488.45439453 -1080.21623047 488.45439453 -1081.45703125 488.91796875 C-1088.77561736 491.68693323 -1095.91356698 494.68605044 -1103 498 C-1110.21534532 501.36270723 -1117.49852678 504.48267318 -1124.89892578 507.41357422 C-1128.28610006 508.77843653 -1131.4903387 510.21722834 -1134.640625 512.0703125 C-1137.73654707 513.84866774 -1140.64793885 515.11221769 -1144 516.3125 C-1149.51046537 518.36948878 -1154.81256464 520.73104834 -1160.11328125 523.26611328 C-1165.6873221 525.90863214 -1171.36320924 528.25592537 -1177.10253906 530.51513672 C-1180.41971044 531.84216544 -1183.54263204 533.24966544 -1186.625 535.0625 C-1189.72705864 536.84331144 -1192.64198513 538.11008582 -1196 539.3125 C-1201.51046537 541.36948878 -1206.81256464 543.73104834 -1212.11328125 546.26611328 C-1217.6873221 548.90863214 -1223.36320924 551.25592537 -1229.10253906 553.51513672 C-1232.41971044 554.84216544 -1235.54263204 556.24966544 -1238.625 558.0625 C-1241.72705864 559.84331144 -1244.64198513 561.11008582 -1248 562.3125 C-1253.51046537 564.36948878 -1258.81256464 566.73104834 -1264.11328125 569.26611328 C-1269.6873221 571.90863214 -1275.36320924 574.25592537 -1281.10253906 576.51513672 C-1285.65957715 578.338172 -1289.75805142 580.53186505 -1294 583 C-1295.42008276 583.62453902 -1296.85713008 584.21280131 -1298.3125 584.75 C-1303.13816595 586.61446184 -1307.84592162 588.69159223 -1312.5625 590.8125 C-1318.5627787 593.50618359 -1324.59141367 596.09351848 -1330.6875 598.5625 C-1338.59257034 601.77299532 -1346.29692654 605.33551362 -1354 609 C-1361.76527178 612.67581267 -1369.59095549 616.08984312 -1377.54882812 619.31982422 C-1384.82205571 622.29359887 -1391.9022153 625.63404024 -1399 629 C-1405.97930693 632.23313248 -1413.01425227 635.33425332 -1420.06884766 638.39868164 C-1425.04206246 640.56335953 -1429.96606773 642.81998019 -1434.86328125 645.15234375 C-1437 646 -1437 646 -1440 646 C-1440 642.7 -1440 639.4 -1440 636 C-1439.05382813 635.5875 -1438.10765625 635.175 -1437.1328125 634.75 C-1418.20926661 626.51238479 -1418.20926661 626.51238479 -1399.4375 617.9375 C-1394.55390991 615.66463417 -1389.6147499 613.58665436 -1384.625 611.5625 C-1378.52885707 609.08849562 -1372.54643462 606.44947457 -1366.60302734 603.62963867 C-1361.34616202 601.14060843 -1356.03245771 598.79882946 -1350.69677734 596.484375 C-1346.96492691 594.86429033 -1343.25469652 593.2092468 -1339.5625 591.5 C-1335.0082646 589.41065063 -1330.39113902 587.50997831 -1325.75 585.625 C-1319.61363558 583.1286678 -1313.58815752 580.46924167 -1307.60351562 577.62988281 C-1302.34352957 575.13933798 -1297.02628611 572.7970773 -1291.68798828 570.47998047 C-1288.04513857 568.89771469 -1284.41915126 567.2887317 -1280.8125 565.625 C-1274.50169531 562.73294686 -1268.1075491 560.03522841 -1261.72045898 557.31713867 C-1256.07867388 554.91083684 -1250.48974063 552.43438991 -1244.9609375 549.77734375 C-1243 549 -1243 549 -1240 549 C-1240 548.34 -1240 547.68 -1240 547 C-1239.18917969 546.69707031 -1238.37835937 546.39414062 -1237.54296875 546.08203125 C-1230.22438264 543.31306677 -1223.08643302 540.31394956 -1216 537 C-1208.78465468 533.63729277 -1201.50147322 530.51732682 -1194.10107422 527.58642578 C-1190.71389994 526.22156347 -1187.5096613 524.78277166 -1184.359375 522.9296875 C-1181.26345293 521.15133226 -1178.35206115 519.88778231 -1175 518.6875 C-1169.48953463 516.63051122 -1164.18743536 514.26895166 -1158.88671875 511.73388672 C-1153.3126779 509.09136786 -1147.63679076 506.74407463 -1141.89746094 504.48486328 C-1138.58028956 503.15783456 -1135.45736796 501.75033456 -1132.375 499.9375 C-1129.27294136 498.15668856 -1126.35801487 496.88991418 -1123 495.6875 C-1118.13923035 493.87303462 -1113.42886131 491.86158836 -1108.75 489.625 C-1103.38042888 487.05918934 -1097.95939321 484.71846775 -1092.4375 482.5 C-1085.85391961 479.84781502 -1079.5741631 476.85281387 -1073.25390625 473.6171875 C-1069.28991208 471.64708716 -1065.25190104 469.95757217 -1061.15234375 468.29296875 C-1057.64020077 466.85242435 -1054.16194006 465.3409919 -1050.6875 463.8125 C-1045.92779686 461.71914179 -1041.16418895 459.63582387 -1036.390625 457.57421875 C-1023.69000484 452.09393709 -1023.69000484 452.09393709 -1011.125 446.3125 C-1005.27328964 443.54234443 -999.34576016 441.05688725 -993.34765625 438.62866211 C-986.10653984 435.67744385 -979.06317185 432.34954542 -972 429 C-960.26305151 423.56291152 -948.42079672 418.36898254 -936.4375 413.5 C-928.49284045 410.26472891 -920.7446092 406.68424566 -913 403 C-905.23472822 399.32418733 -897.40904451 395.91015688 -889.45117188 392.68017578 C-882.17794429 389.70640113 -875.0977847 386.36595976 -868 383 C-856.26305151 377.56291152 -844.42079672 372.36898254 -832.4375 367.5 C-824.49284045 364.26472891 -816.7446092 360.68424566 -809 357 C-801.23114716 353.32249218 -793.40181063 349.90704981 -785.44018555 346.67578125 C-780.08084343 344.48471546 -774.83319844 342.11108131 -769.60302734 339.62963867 C-764.34616202 337.14060843 -759.03245771 334.79882946 -753.69677734 332.484375 C-749.96492691 330.86429033 -746.25469652 329.2092468 -742.5625 327.5 C-738.00827387 325.41065488 -733.39119659 323.5098234 -728.75 321.625 C-721.8478646 318.81949176 -715.0923165 315.78342034 -708.3671875 312.578125 C-698.5990099 308 -698.5990099 308 -695 308 C-695 307.34 -695 306.68 -695 306 C-694.18917969 305.69707031 -693.37835937 305.39414062 -692.54296875 305.08203125 C-685.22438264 302.31306677 -678.08643302 299.31394956 -671 296 C-663.86923489 292.67671132 -656.67253096 289.58537983 -649.36474609 286.67431641 C-645.52755251 285.12431254 -641.81575942 283.43666568 -638.125 281.5625 C-633.0288888 278.97555212 -627.8291194 276.71451185 -622.5625 274.5 C-620.7053523 273.7118249 -618.84857674 272.92277233 -616.9921875 272.1328125 C-616.12045898 271.76188477 -615.24873047 271.39095703 -614.35058594 271.00878906 C-610.78337839 269.47786867 -607.25542338 267.86736531 -603.73046875 266.2421875 C-600.17039341 264.62258241 -596.58570213 263.06187025 -593 261.5 C-588.52758493 259.55061885 -584.06266263 257.59017046 -579.625 255.5625 C-568.09114263 250.29629267 -556.54170829 245.09065841 -544.74560547 240.43408203 C-541.48381499 239.12436878 -538.4192718 237.72430823 -535.38671875 235.94140625 C-532.28020766 234.16062653 -529.36154999 232.89118001 -526 231.6875 C-520.48953463 229.63051122 -515.18743536 227.26895166 -509.88671875 224.73388672 C-504.3126779 222.09136786 -498.63679076 219.74407463 -492.89746094 217.48486328 C-488.34042285 215.661828 -484.24194858 213.46813495 -480 211 C-478.57991724 210.37546098 -477.14286992 209.78719869 -475.6875 209.25 C-470.86183405 207.38553816 -466.15407838 205.30840777 -461.4375 203.1875 C-455.4372213 200.49381641 -449.40858633 197.90648152 -443.3125 195.4375 C-435.40742966 192.22700468 -427.70307346 188.66448638 -420 185 C-412.23472822 181.32418733 -404.40904451 177.91015688 -396.45117188 174.68017578 C-389.17794429 171.70640113 -382.0977847 168.36595976 -375 165 C-363.26305151 159.56291152 -351.42079672 154.36898254 -339.4375 149.5 C-331.49284045 146.26472891 -323.7446092 142.68424566 -316 139 C-308.23114716 135.32249218 -300.40181063 131.90704981 -292.44018555 128.67578125 C-287.08084343 126.48471546 -281.83319844 124.11108131 -276.60302734 121.62963867 C-271.34616202 119.14060843 -266.03245771 116.79882946 -260.69677734 114.484375 C-256.96492691 112.86429033 -253.25469652 111.2092468 -249.5625 109.5 C-245.00825834 107.41064775 -240.39110349 105.51007678 -235.75 103.625 C-227.69967861 100.34828087 -219.8470148 96.73296179 -212 93 C-204.23266691 89.32321157 -196.40521211 85.90733355 -188.44458008 82.67797852 C-183.66847614 80.7260429 -178.9751497 78.64605925 -174.3125 76.4375 C-169.32109461 74.07546004 -164.31356643 71.76637651 -159.25 69.5625 C-158.12078125 69.06878906 -156.9915625 68.57507813 -155.828125 68.06640625 C-153 67 -153 67 -150 67 C-150 66.34 -150 65.68 -150 65 C-148.78376953 64.54560547 -148.78376953 64.54560547 -147.54296875 64.08203125 C-140.22408034 61.3129524 -133.0881517 58.31057159 -126 55 C-119.85928554 52.17072267 -113.69534571 49.39501254 -107.5 46.6875 C-105.75203125 45.91986328 -105.75203125 45.91986328 -103.96875 45.13671875 C-101 44 -101 44 -98 44 C-98 43.34 -98 42.68 -98 42 C-96.85337891 41.58041016 -96.85337891 41.58041016 -95.68359375 41.15234375 C-88.92408892 38.6226133 -82.38344231 35.83866202 -75.87304688 32.72827148 C-71.12539869 30.47846216 -66.31187532 28.45810118 -61.4375 26.5 C-54.8688205 23.85650703 -48.62593869 20.8506812 -42.32421875 17.6171875 C-38.09658704 15.5605018 -33.76573668 13.94461063 -29.359375 12.31640625 C-24.94216801 10.58547747 -20.68857153 8.56726739 -16.40600586 6.53100586 C-2.61953125 0 -2.61953125 0 0 0 Z " fill="#BB9969" transform="translate(1440,250)"/>
</svg>
